<svg xmlns="http://www.w3.org/2000/svg" xmlns:xlink="http://www.w3.org/1999/xlink" version="1.1" data-diagram-type="SEQUENCE" style="width:821px;height:446px;background:#FFFFFF;" width="821px" height="446px" viewBox="0 0 821 446" zoomAndPan="magnify" preserveAspectRatio="none" contentStyleType="text/css"><?plantuml 1.2026.8?><defs/><g font-family="sans-serif" lengthAdjust="spacing"><g class="title" data-source-line="3"><text x="307.827" y="29.966" fill="#000" font-size="14" textLength="203.979" font-weight="700" font-family="'Helvetica, Arial, sans-serif'">Arquitecturas base y revisión</text></g><g><title>Persona</title><rect x="36.415" y="129.136" width="8" height="227.236" fill="#000" fill-opacity="0"/><line x1="39.915" y1="129.136" x2="39.915" y2="356.372" style="stroke:#181818;stroke-width:0.5;stroke-dasharray:5,5;"/></g><g><title>Agente de IA</title><rect x="399.659" y="129.136" width="8" height="227.236" fill="#000" fill-opacity="0"/><line x1="403.159" y1="129.136" x2="403.159" y2="356.372" style="stroke:#181818;stroke-width:0.5;stroke-dasharray:5,5;"/></g><g><title>API del APM</title><rect x="757.677" y="129.136" width="8" height="227.236" fill="#000" fill-opacity="0"/><line x1="761.177" y1="129.136" x2="761.177" y2="356.372" style="stroke:#181818;stroke-width:0.5;stroke-dasharray:5,5;"/></g><text x="10" y="125.034" fill="#000" font-size="14" textLength="53.83" font-family="'Helvetica, Arial, sans-serif'">Persona</text><ellipse cx="39.915" cy="58.568" rx="8" ry="8" fill="#E2E2F0" style="stroke:#181818;stroke-width:0.5;"/><path d="M39.915,66.568 L39.915,93.568 M26.915,74.568 L52.915,74.568 M39.915,93.568 L26.915,108.568 M39.915,93.568 L52.915,108.568" style="stroke:#181818;stroke-width:0.5;" fill="none"/><rect x="353.893" y="95.068" width="98.532" height="33.068" fill="#E2E2F0" style="stroke:#181818;stroke-width:0.5;" rx="2.5" ry="2.5"/><text x="360.893" y="117.034" fill="#000" font-size="14" textLength="84.532" font-family="'Helvetica, Arial, sans-serif'">Agente de IA</text><rect x="711.723" y="76" width="98.91" height="52.136" fill="#E2E2F0" style="stroke:#181818;stroke-width:0.5;" rx="2.5" ry="2.5"/><text x="721.341" y="97.966" fill="#000" font-size="14" textLength="79.674" font-family="'Helvetica, Arial, sans-serif'">API del APM</text><text x="718.723" y="117.034" fill="#000" font-size="14" textLength="84.91" font-family="'Helvetica, Arial, sans-serif'">(App Service)</text><text x="10" y="371.338" fill="#000" font-size="14" textLength="53.83" font-family="'Helvetica, Arial, sans-serif'">Persona</text><ellipse cx="39.915" cy="383.94" rx="8" ry="8" fill="#E2E2F0" style="stroke:#181818;stroke-width:0.5;"/><path d="M39.915,391.94 L39.915,418.94 M26.915,399.94 L52.915,399.94 M39.915,418.94 L26.915,433.94 M39.915,418.94 L52.915,433.94" style="stroke:#181818;stroke-width:0.5;" fill="none"/><rect x="353.893" y="356.372" width="98.532" height="33.068" fill="#E2E2F0" style="stroke:#181818;stroke-width:0.5;" rx="2.5" ry="2.5"/><text x="360.893" y="378.338" fill="#000" font-size="14" textLength="84.532" font-family="'Helvetica, Arial, sans-serif'">Agente de IA</text><rect x="711.723" y="356.372" width="98.91" height="52.136" fill="#E2E2F0" style="stroke:#181818;stroke-width:0.5;" rx="2.5" ry="2.5"/><text x="721.341" y="378.338" fill="#000" font-size="14" textLength="79.674" font-family="'Helvetica, Arial, sans-serif'">API del APM</text><text x="718.723" y="397.406" fill="#000" font-size="14" textLength="84.91" font-family="'Helvetica, Arial, sans-serif'">(App Service)</text><polygon points="391.159,156.842,401.159,160.842,391.159,164.842,395.159,160.842" fill="#181818" style="stroke:#181818;stroke-width:1;stroke-linejoin:miter;stroke-miterlimit:10;"/><line x1="39.915" y1="160.842" x2="397.159" y2="160.842" style="stroke:#181818;stroke-width:1;"/><text x="63.894" y="155.033" fill="#000" font-size="13" font-weight="700" font-family="'Helvetica, Arial, sans-serif'">1</text><text x="75.33" y="155.033" fill="#000" font-size="13" textLength="303.849" font-family="'Helvetica, Arial, sans-serif'">Genera la vista de contexto de la aplicación Pagos</text><polygon points="749.177,188.548,759.177,192.548,749.177,196.548,753.177,192.548" fill="#181818" style="stroke:#181818;stroke-width:1;stroke-linejoin:miter;stroke-miterlimit:10;"/><line x1="403.159" y1="192.548" x2="755.177" y2="192.548" style="stroke:#181818;stroke-width:1;"/><text x="415.159" y="186.739" fill="#000" font-size="13" font-weight="700" font-family="'Helvetica, Arial, sans-serif'">2</text><text x="426.595" y="186.739" fill="#000" font-size="13" textLength="322.582" font-family="'Helvetica, Arial, sans-serif'">Fact Sheet, relaciones e integraciones (con permisos)</text><polygon points="414.159,220.254,404.159,224.254,414.159,228.254,410.159,224.254" fill="#181818" style="stroke:#181818;stroke-width:1;stroke-linejoin:miter;stroke-miterlimit:10;"/><line x1="408.159" y1="224.254" x2="760.177" y2="224.254" style="stroke:#181818;stroke-width:1;stroke-dasharray:2,2;"/><text x="520.927" y="218.445" fill="#000" font-size="13" font-weight="700" font-family="'Helvetica, Arial, sans-serif'">3</text><text x="532.363" y="218.445" fill="#000" font-size="13" textLength="111.046" font-family="'Helvetica, Arial, sans-serif'">Datos autorizados</text><line x1="403.159" y1="255.96" x2="445.159" y2="255.96" style="stroke:#181818;stroke-width:1;"/><line x1="445.159" y1="255.96" x2="445.159" y2="268.96" style="stroke:#181818;stroke-width:1;"/><line x1="404.159" y1="268.96" x2="445.159" y2="268.96" style="stroke:#181818;stroke-width:1;"/><polygon points="414.159,264.96,404.159,268.96,414.159,272.96,410.159,268.96" fill="#181818" style="stroke:#181818;stroke-width:1;stroke-linejoin:miter;stroke-miterlimit:10;"/><text x="410.159" y="250.151" fill="#000" font-size="13" font-weight="700" font-family="'Helvetica, Arial, sans-serif'">4</text><text x="421.595" y="250.151" fill="#000" font-size="13" textLength="259.077" font-family="'Helvetica, Arial, sans-serif'">Compara contra los estándares del equipo</text><polygon points="50.915,296.666,40.915,300.666,50.915,304.666,46.915,300.666" fill="#181818" style="stroke:#181818;stroke-width:1;stroke-linejoin:miter;stroke-miterlimit:10;"/><line x1="44.915" y1="300.666" x2="402.159" y2="300.666" style="stroke:#181818;stroke-width:1;stroke-dasharray:2,2;"/><text x="51.915" y="294.857" fill="#000" font-size="13" font-weight="700" font-family="'Helvetica, Arial, sans-serif'">5</text><text x="63.351" y="294.857" fill="#000" font-size="13" textLength="327.808" font-family="'Helvetica, Arial, sans-serif'">Vista ArchiMate/C4 preliminar + hallazgos (consultivo)</text><path d="M44.915,313.666 L44.915,340.666 L181.915,340.666 L181.915,323.666 L171.915,313.666 L44.915,313.666" style="stroke:#181818;stroke-width:0.5;" fill="#FEFFDD"/><path d="M171.915,313.666 L171.915,323.666 L181.915,323.666 L171.915,313.666" style="stroke:#181818;stroke-width:0.5;" fill="#FEFFDD"/><text x="50.915" y="332.563" fill="#000" font-size="13" textLength="116.103" font-family="'Helvetica, Arial, sans-serif'">El arquitecto valida</text><?plantuml-src VL8nRXin4EpvYiKrbX0fQbAf240ubgD2mG46KgNmchUwMvX7dhda9V5lyeOymH_Byg8WHefq98SpEpkxLt0emN4CwBd3RW-OdWfdShaa57X08VWEYMOMVlaPp1NST9mnBOyz1KgOzd0VfX5I2T0nzWb7kOVLJ0cww6JN5qRPNH2KjsEtDfcp9x3_hsNaaSE4oeAEpbXyFiIGF-58q7maFrDcXnjLOVGR40oo5KfyRbuHPS0kVkNGmnczq6k4dWe5HoSImPwivpw0ev0f6ImvXZ8-wD6Wop51qr8IJQa1TTeQbT3YF678qDY-ijGZ7Es2st_mzgYW1zkUleILdIQuepIpe_Nlt-tHc1Qsxy727cwNJC4ZQ0mPgwhJhkbRZlMixpXvxTlLYA35Fegn2rchxE6WTk5k8CeRJT9Z7Iq94B1gw00kzvLgmaHfP8coDfMxlHZuW3aAr0GIFsjuV-GLkevZpMunL3tgFvByyYDqc5IqzgYXyXGhHJcjSZulNTZa1ZvXfjtrEvZK68yST8lUm83UuxDsiNWI7JBFSMr2r4GJzqE6U5w4RlpVtOmmB_lw2m00?></g></svg>