<svg xmlns="http://www.w3.org/2000/svg" xmlns:xlink="http://www.w3.org/1999/xlink" version="1.1" data-diagram-type="DESCRIPTION" style="width:1563px;height:473px;background:#FFFFFF;" width="1563px" height="473px" viewBox="0 0 1563 473" zoomAndPan="magnify" preserveAspectRatio="none" contentStyleType="text/css"><?plantuml 1.2026.8?><defs><filter id="fk0rpq8mpmrcq" x="-1" y="-1" width="300%" height="300%"><feGaussianBlur result="blurOut" stdDeviation="2"/><feColorMatrix type="matrix" in="blurOut" result="blurOut2" values="0 0 0 0 0 0 0 0 0 0 0 0 0 0 0 0 0 0 .4 0"/><feOffset result="blurOut3" in="blurOut2" dx="4" dy="4"/><feBlend in="SourceGraphic" in2="blurOut3" mode="normal"/></filter></defs><g font-family="sans-serif" lengthAdjust="spacing"><g class="title" data-source-line="8"><text x="551.71" y="24.966" fill="#000" font-size="14" textLength="453.08" font-weight="700" font-family="'Helvetica, Arial, sans-serif'">Metamodelo del APM · Fact Sheets de LeanIX v4 en ArchiMate 3.2</text></g><!--entity goal--><g class="entity" data-qualified-name="goal" id="ent0001" data-source-line="280"><path d="M242.5,78.992 L358.5,78.992 L370.5,90.992 L370.5,139.68 L358.5,151.68 L242.5,151.68 L230.5,139.68 L230.5,90.992 L242.5,78.992" style="stroke:#181818;stroke-width:0.5;" fill="#CCF"/><path d="M350.525,92.746 A0.5,0.5 0 0 0 350.504,92.756 A0.5,0.5 0 0 0 350.484,92.748 C347.065,92.795 344.318,95.612 344.359,99.031 C344.4,102.451 347.211,105.201 350.63,105.166 C354.05,105.131 356.807,102.324 356.777,98.904 C356.748,95.485 353.945,92.723 350.525,92.746 M350.523,93.736 A0.5,0.5 0 0 0 350.533,93.746 C353.412,93.726 355.753,96.033 355.777,98.912 C355.802,101.792 353.501,104.137 350.621,104.166 C347.741,104.195 345.394,101.899 345.359,99.02 C345.325,96.14 347.618,93.787 350.498,93.748 A0.5,0.5 0 0 0 350.523,93.736 M350.515,95.088 C348.387,95.117 346.673,96.874 346.699,99.002 C346.724,101.131 348.479,102.848 350.607,102.826 C352.736,102.804 354.456,101.053 354.437,98.924 C354.419,96.796 352.67,95.074 350.541,95.088 A0.5,0.5 0 0 0 350.529,95.1 A0.5,0.5 0 0 0 350.515,95.088 M350.542,96.082 A0.5,0.5 0 0 0 350.549,96.088 C352.137,96.077 353.424,97.343 353.437,98.932 C353.451,100.521 352.186,101.81 350.597,101.826 C349.009,101.842 347.718,100.579 347.699,98.99 C347.68,97.402 348.94,96.11 350.529,96.088 A0.5,0.5 0 0 0 350.543,96.082 M350.545,97.269 C349.625,97.282 348.87,98.057 348.881,98.977 C348.892,99.896 349.667,100.654 350.586,100.644 C351.505,100.635 352.263,99.861 352.256,98.942 C352.248,98.022 351.476,97.263 350.556,97.269 A0.959,0.959 0 0 0 350.55,97.276 A0.959,0.959 0 0 0 350.545,97.269" fill="#000"/><text x="274.166" y="121.82" fill="#000" font-size="12" textLength="52.668" font-family="'Helvetica, Arial, sans-serif'">Objective</text><text x="273.2" y="138.164" fill="#000" font-size="12" textLength="54.6" font-family="'Helvetica, Arial, sans-serif'">(Objetivo)</text></g><!--entity cap--><g class="entity" data-qualified-name="cap" id="ent0002" data-source-line="92"><rect x="6" y="78.992" width="151.305" height="72.688" fill="#F8E7C0" style="stroke:#181818;stroke-width:0.5;" rx="12.5" ry="12.5"/><path d="M139.222,91.356 A0.5,0.5 0 0 0 138.718,91.856 L138.718,96.382 L134.216,96.36 A0.5,0.5 0 0 0 133.714,96.86 L133.714,101.413 L129.187,101.413 A0.5,0.5 0 0 0 128.687,101.917 L128.734,106.852 A0.5,0.5 0 0 0 129.234,107.346 L144.248,107.346 A0.5,0.5 0 0 0 144.748,106.846 L144.724,91.879 A0.5,0.5 0 0 0 144.226,91.379 M139.718,92.358 L143.724,92.378 L143.73,96.405 L139.718,96.385 M134.714,97.362 L138.718,97.382 L138.718,101.413 L134.714,101.413 M139.718,97.385 L143.724,97.405 L143.724,101.413 L139.718,101.413 M129.691,102.413 L133.715,102.413 L133.715,106.346 L129.73,106.346 M134.715,102.413 L138.718,102.413 L138.718,106.323 L134.715,106.323 M139.718,102.413 L143.74,102.413 L143.748,106.346 L139.718,106.346" fill="#000"/><text x="27.448" y="121.82" fill="#000" font-size="12" textLength="49.74" font-family="'Helvetica, Arial, sans-serif'">Business</text><text x="77.188" y="121.82" fill="#000" font-size="12" font-family="'Helvetica, Arial, sans-serif'"> </text><text x="80.308" y="121.82" fill="#000" font-size="12" textLength="55.548" font-family="'Helvetica, Arial, sans-serif'">Capability</text><text x="16" y="138.164" fill="#000" font-size="12" textLength="62.376" font-family="'Helvetica, Arial, sans-serif'">(Capacidad</text><text x="78.376" y="138.164" fill="#000" font-size="12" font-family="'Helvetica, Arial, sans-serif'"> </text><text x="81.496" y="138.164" fill="#000" font-size="12" textLength="14.148" font-family="'Helvetica, Arial, sans-serif'">de</text><text x="95.645" y="138.164" fill="#000" font-size="12" font-family="'Helvetica, Arial, sans-serif'"> </text><text x="98.765" y="138.164" fill="#000" font-size="12" textLength="48.54" font-family="'Helvetica, Arial, sans-serif'">negocio)</text></g><!--entity vstream--><g class="entity" data-qualified-name="vstream" id="ent0003" data-source-line="101"><rect x="388.5" y="78.992" width="214.449" height="72.688" fill="#F8E7C0" style="stroke:#181818;stroke-width:0.5;" rx="12.5" ry="12.5"/><path d="M573.82,92.439 A0.5,0.5 0 0 0 573.435,93.258 L578.23,99.023 L573.442,104.619 A0.5,0.5 0 0 0 573.822,105.445 L586.853,105.412 A0.5,0.5 0 0 0 587.234,105.232 L592.228,99.279 A0.5,0.5 0 0 0 592.23,98.639 L587.24,92.619 A0.5,0.5 0 0 0 586.855,92.439 M574.886,93.44 L586.621,93.44 L591.195,98.957 L586.617,104.412 L574.908,104.443 L579.264,99.354 A0.5,0.5 0 0 0 579.27,98.709" fill="#000"/><text x="447.274" y="121.82" fill="#000" font-size="12" textLength="49.74" font-family="'Helvetica, Arial, sans-serif'">Business</text><text x="497.015" y="121.82" fill="#000" font-size="12" font-family="'Helvetica, Arial, sans-serif'"> </text><text x="500.135" y="121.82" fill="#000" font-size="12" textLength="44.04" font-family="'Helvetica, Arial, sans-serif'">Context</text><text x="398.5" y="138.164" fill="#000" font-size="12" textLength="34.812" font-family="'Helvetica, Arial, sans-serif'">(Value</text><text x="433.312" y="138.164" fill="#000" font-size="12" font-family="'Helvetica, Arial, sans-serif'"> </text><text x="436.432" y="138.164" fill="#000" font-size="12" textLength="40.596" font-family="'Helvetica, Arial, sans-serif'">Stream</text><text x="477.029" y="138.164" fill="#000" font-size="12" font-family="'Helvetica, Arial, sans-serif'"> </text><text x="480.149" y="138.164" fill="#000" font-size="12" font-family="'Helvetica, Arial, sans-serif'">/</text><text x="484.613" y="138.164" fill="#000" font-size="12" font-family="'Helvetica, Arial, sans-serif'"> </text><text x="487.733" y="138.164" fill="#000" font-size="12" textLength="55.284" font-family="'Helvetica, Arial, sans-serif'">Customer</text><text x="543.017" y="138.164" fill="#000" font-size="12" font-family="'Helvetica, Arial, sans-serif'"> </text><text x="546.137" y="138.164" fill="#000" font-size="12" textLength="46.812" font-family="'Helvetica, Arial, sans-serif'">Journey)</text></g><!--entity techcat--><g class="entity" data-qualified-name="techcat" id="ent0004" data-source-line="340"><path d="M1390,223.992 L1431,223.992 A3.75,3.75 0 0 1 1433.5,226.492 L1440.5,244.992 L1545.021,244.992 A2.5,2.5 0 0 1 1547.521,247.492 L1547.521,302.18 A2.5,2.5 0 0 1 1545.021,304.68 L1390,304.68 A2.5,2.5 0 0 1 1387.5,302.18 L1387.5,226.492 A2.5,2.5 0 0 1 1390,223.992" style="stroke:#444;stroke-width:0.5;stroke-dasharray:8,5;" fill="#FFF" filter="url(#fk0rpq8mpmrcq)"/><line x1="1387.5" y1="244.992" x2="1440.5" y2="244.992" style="stroke:#444;stroke-width:0.5;stroke-dasharray:8,5;"/><text x="1422.076" y="274.82" fill="#000" font-size="12" textLength="26.616" font-family="'Helvetica, Arial, sans-serif'">Tech</text><text x="1448.692" y="274.82" fill="#000" font-size="12" font-family="'Helvetica, Arial, sans-serif'"> </text><text x="1451.812" y="274.82" fill="#000" font-size="12" textLength="51.132" font-family="'Helvetica, Arial, sans-serif'">Category</text><text x="1397.5" y="291.164" fill="#000" font-size="12" textLength="58.44" font-family="'Helvetica, Arial, sans-serif'">(Categoría</text><text x="1455.94" y="291.164" fill="#000" font-size="12" font-family="'Helvetica, Arial, sans-serif'"> </text><text x="1459.06" y="291.164" fill="#000" font-size="12" textLength="68.46" font-family="'Helvetica, Arial, sans-serif'">tecnológica)</text></g><!--entity platform--><g class="entity" data-qualified-name="platform" id="ent0005" data-source-line="340"><path d="M476,376.992 L517,376.992 A3.75,3.75 0 0 1 519.5,379.492 L526.5,397.992 L621,397.992 A2.5,2.5 0 0 1 623.5,400.492 L623.5,455.18 A2.5,2.5 0 0 1 621,457.68 L476,457.68 A2.5,2.5 0 0 1 473.5,455.18 L473.5,379.492 A2.5,2.5 0 0 1 476,376.992" style="stroke:#444;stroke-width:0.5;stroke-dasharray:8,5;" fill="#FFF" filter="url(#fk0rpq8mpmrcq)"/><line x1="473.5" y1="397.992" x2="526.5" y2="397.992" style="stroke:#444;stroke-width:0.5;stroke-dasharray:8,5;"/><text x="519.008" y="427.82" fill="#000" font-size="12" textLength="48.984" font-family="'Helvetica, Arial, sans-serif'">Platform</text><text x="508.676" y="444.164" fill="#000" font-size="12" textLength="69.648" font-family="'Helvetica, Arial, sans-serif'">(Plataforma)</text></g><!--entity provider--><g class="entity" data-qualified-name="provider" id="ent0006" data-source-line="110"><rect x="620.5" y="78.992" width="140" height="72.688" fill="#FFC" style="stroke:#181818;stroke-width:0.5;" rx="0.5" ry="0.5"/><path d="M740.396,89.942 C738.397,89.969 736.788,91.619 736.812,93.618 C736.834,95.439 738.206,96.939 739.962,97.175 L739.962,98.385 L734.478,98.37 A0.5,0.5 0 0 0 733.976,98.868 A0.5,0.5 0 0 0 734.474,99.37 L739.962,99.385 L739.962,102.588 L737.019,107.715 A0.5,0.5 0 0 0 737.204,108.397 A0.5,0.5 0 0 0 737.886,108.213 L740.404,103.827 L743.009,108.188 A0.501,0.501 0 0 0 743.868,107.674 L740.962,102.799 L740.962,99.388 L746.48,99.403 A0.5,0.5 0 0 0 746.982,98.903 A0.5,0.5 0 0 0 746.484,98.403 L740.962,98.388 L740.962,97.171 C742.733,96.918 744.095,95.38 744.079,93.543 C744.062,91.545 742.42,89.928 740.421,89.942 A0.5,0.5 0 0 0 740.41,89.948 A0.5,0.5 0 0 0 740.396,89.942 M740.419,90.938 A0.5,0.5 0 0 0 740.429,90.942 C741.888,90.932 743.067,92.092 743.079,93.551 C743.092,95.01 741.933,96.193 740.474,96.208 C739.015,96.223 737.829,95.064 737.812,93.606 C737.795,92.147 738.951,90.962 740.41,90.942 A0.5,0.5 0 0 0 740.419,90.938" fill="#000"/><text x="666.614" y="121.82" fill="#000" font-size="12" textLength="47.772" font-family="'Helvetica, Arial, sans-serif'">Provider</text><text x="657.548" y="138.164" fill="#000" font-size="12" textLength="65.904" font-family="'Helvetica, Arial, sans-serif'">(Proveedor)</text></g><!--entity org--><g class="entity" data-qualified-name="org" id="ent0007" data-source-line="110"><rect x="671.5" y="380.992" width="140" height="72.688" fill="#FFC" style="stroke:#181818;stroke-width:0.5;" rx="0.5" ry="0.5"/><path d="M791.396,391.942 C789.397,391.969 787.788,393.619 787.812,395.618 C787.834,397.439 789.206,398.939 790.962,399.175 L790.962,400.385 L785.478,400.37 A0.5,0.5 0 0 0 784.976,400.868 A0.5,0.5 0 0 0 785.474,401.37 L790.962,401.385 L790.962,404.588 L788.019,409.715 A0.5,0.5 0 0 0 788.204,410.397 A0.5,0.5 0 0 0 788.886,410.213 L791.404,405.827 L794.009,410.188 A0.501,0.501 0 0 0 794.868,409.674 L791.962,404.799 L791.962,401.388 L797.48,401.403 A0.5,0.5 0 0 0 797.982,400.903 A0.5,0.5 0 0 0 797.484,400.403 L791.962,400.388 L791.962,399.171 C793.733,398.918 795.095,397.38 795.079,395.543 C795.062,393.545 793.42,391.928 791.421,391.942 A0.5,0.5 0 0 0 791.41,391.948 A0.5,0.5 0 0 0 791.396,391.942 M791.419,392.938 A0.5,0.5 0 0 0 791.429,392.942 C792.888,392.932 794.067,394.092 794.079,395.551 C794.092,397.01 792.933,398.193 791.474,398.208 C790.015,398.223 788.829,397.064 788.812,395.606 C788.795,394.147 789.951,392.962 791.41,392.942 A0.5,0.5 0 0 0 791.419,392.938" fill="#000"/><text x="704.786" y="423.82" fill="#000" font-size="12" textLength="73.429" font-family="'Helvetica, Arial, sans-serif'">Organization</text><text x="700.472" y="440.164" fill="#000" font-size="12" textLength="82.057" font-family="'Helvetica, Arial, sans-serif'">(Organización)</text></g><!--entity bproc--><g class="entity" data-qualified-name="bproc" id="ent0008" data-source-line="127"><rect x="1021.5" y="78.992" width="140" height="72.688" fill="#FFC" style="stroke:#181818;stroke-width:0.5;" rx="12.5" ry="12.5"/><path d="M1145.229,92.492 A0.5,0.5 0 0 0 1144.901,92.967 L1144.926,95.603 L1132.369,95.607 A0.5,0.5 0 0 0 1131.869,96.107 L1131.865,102.156 A0.5,0.5 0 0 0 1132.367,102.656 L1144.896,102.609 L1144.896,104.936 A0.5,0.5 0 0 0 1145.779,105.256 L1150.773,99.303 A0.5,0.5 0 0 0 1150.775,98.662 L1145.785,92.643 A0.5,0.5 0 0 0 1145.228,92.492 M1145.915,94.365 L1149.741,98.98 L1145.897,103.56 L1145.897,102.107 A0.5,0.5 0 0 0 1145.395,101.607 L1132.866,101.654 L1132.87,96.607 L1145.431,96.603 A0.5,0.5 0 0 0 1145.931,96.099" fill="#000"/><text x="1043.05" y="121.82" fill="#000" font-size="12" textLength="49.74" font-family="'Helvetica, Arial, sans-serif'">Business</text><text x="1092.79" y="121.82" fill="#000" font-size="12" font-family="'Helvetica, Arial, sans-serif'"> </text><text x="1095.91" y="121.82" fill="#000" font-size="12" textLength="44.04" font-family="'Helvetica, Arial, sans-serif'">Context</text><text x="1066.15" y="138.164" fill="#000" font-size="12" textLength="50.7" font-family="'Helvetica, Arial, sans-serif'">(Process)</text></g><!--entity bprod--><g class="entity" data-qualified-name="bprod" id="ent0009" data-source-line="158"><rect x="872.5" y="227.992" width="140" height="72.688" fill="#FFC" style="stroke:#181818;stroke-width:0.5;" rx="0.5" ry="0.5"/><path d="M983.52,241.842 A0.5,0.5 0 0 0 983.02,242.342 L983.02,254.549 A0.5,0.5 0 0 0 983.52,255.049 L1001.575,255.049 A0.5,0.5 0 0 0 1002.075,254.549 L1002.075,242.342 A0.5,0.5 0 0 0 1001.575,241.842 M984.02,242.842 L991.954,242.842 L991.954,244.879 L984.02,244.838 M992.954,242.842 L1001.075,242.842 L1001.075,254.049 L984.02,254.049 L984.02,245.838 L992.452,245.881 A0.5,0.5 0 0 0 992.953,245.381" fill="#000"/><text x="894.05" y="270.82" fill="#000" font-size="12" textLength="49.74" font-family="'Helvetica, Arial, sans-serif'">Business</text><text x="943.79" y="270.82" fill="#000" font-size="12" font-family="'Helvetica, Arial, sans-serif'"> </text><text x="946.91" y="270.82" fill="#000" font-size="12" textLength="44.04" font-family="'Helvetica, Arial, sans-serif'">Context</text><text x="890.288" y="287.164" fill="#000" font-size="12" textLength="53.34" font-family="'Helvetica, Arial, sans-serif'">(Business</text><text x="943.628" y="287.164" fill="#000" font-size="12" font-family="'Helvetica, Arial, sans-serif'"> </text><text x="946.748" y="287.164" fill="#000" font-size="12" textLength="47.964" font-family="'Helvetica, Arial, sans-serif'">Product)</text></g><!--entity initiative--><g class="entity" data-qualified-name="initiative" id="ent0010" data-source-line="311"><rect x="326.5" y="227.992" width="140" height="72.688" fill="#FFE0E0" style="stroke:#181818;stroke-width:0.5;" rx="12.5" ry="12.5"/><path d="M444.807,241.672 C444.545,241.656 444.282,241.657 444.018,241.675 C443.316,241.723 442.612,241.892 441.938,242.189 C439.243,243.377 437.752,246.302 438.374,249.181 C438.988,252.025 441.5,254.06 444.4,254.079 A0.5,0.5 0 0 0 444.442,254.081 L451.021,254.081 L451.021,255.826 A0.5,0.5 0 0 0 451.775,256.256 L455.61,254.013 A0.5,0.5 0 0 0 455.673,253.861 A0.5,0.5 0 0 0 455.792,253.828 A0.5,0.5 0 0 0 455.749,253.673 A0.5,0.5 0 0 0 455.648,253.302 A0.5,0.5 0 0 0 455.604,253.146 L451.768,250.959 A0.5,0.5 0 0 0 451.021,251.392 L451.021,253.082 L444.545,253.082 A0.5,0.5 0 0 0 444.495,253.08 C442.019,253.105 439.873,251.391 439.35,248.97 C438.828,246.55 440.076,244.102 442.343,243.103 C444.609,242.105 447.256,242.836 448.69,244.855 C450.124,246.874 449.942,249.615 448.253,251.425 A0.5,0.5 0 0 0 448.277,252.132 A0.5,0.5 0 0 0 448.983,252.107 C450.993,249.953 451.212,246.676 449.507,244.275 C448.388,242.699 446.639,241.782 444.807,241.672" fill="#000"/><text x="371.984" y="270.82" fill="#000" font-size="12" textLength="49.032" font-family="'Helvetica, Arial, sans-serif'">Initiative</text><text x="367.688" y="287.164" fill="#000" font-size="12" textLength="57.624" font-family="'Helvetica, Arial, sans-serif'">(Iniciativa)</text></g><!--entity app--><g class="entity" data-qualified-name="app" id="ent0011" data-source-line="167"><rect x="640.5" y="227.992" width="140" height="72.688" fill="#C2F0FF" style="stroke:#181818;stroke-width:0.5;" rx="0.5" ry="0.5"/><path d="M769.26,242.631 L754.434,242.678 A0.5,0.5 0 0 0 753.934,243.178 L753.934,244.615 L751.446,244.596 A0.5,0.5 0 0 0 750.942,245.096 L750.942,247.031 A0.5,0.5 0 0 0 751.442,247.532 L753.922,247.532 L753.899,248.574 L751.399,248.555 A0.5,0.5 0 0 0 750.895,249.055 L750.895,250.99 A0.5,0.5 0 0 0 751.395,251.49 L753.887,251.49 L753.887,254.492 A0.5,0.5 0 0 0 754.388,254.993 L769.261,255.039 A0.5,0.5 0 0 0 769.762,254.539 L769.762,243.131 A0.5,0.5 0 0 0 769.261,242.631 M768.762,243.633 L768.762,254.037 L754.887,253.994 L754.887,251.491 L757.381,251.491 A0.5,0.5 0 0 0 757.881,250.99 L757.881,249.102 A0.5,0.5 0 0 0 757.385,248.602 L754.899,248.582 L754.922,247.532 L757.428,247.532 A0.5,0.5 0 0 0 757.928,247.031 L757.928,245.142 A0.5,0.5 0 0 0 757.432,244.643 L754.934,244.623 L754.934,243.676 M751.942,245.6 L756.928,245.639 L756.928,246.532 L751.942,246.532 M751.895,249.559 L756.881,249.598 L756.881,250.491 L751.895,250.491" fill="#000"/><text x="678.892" y="270.82" fill="#000" font-size="12" textLength="63.216" font-family="'Helvetica, Arial, sans-serif'">Application</text><text x="678.268" y="287.164" fill="#000" font-size="12" textLength="64.464" font-family="'Helvetica, Arial, sans-serif'">(Aplicación)</text></g><!--entity iface--><g class="entity" data-qualified-name="iface" id="ent0012" data-source-line="173"><rect x="1030.5" y="227.992" width="140" height="72.688" fill="#C2F0FF" style="stroke:#181818;stroke-width:0.5;" rx="0.5" ry="0.5"/><path d="M1152.995,241.322 C1149.657,241.367 1146.961,244.054 1146.873,247.363 L1141.501,247.363 A0.5,0.5 0 0 0 1141.001,247.863 A0.5,0.5 0 0 0 1141.501,248.363 L1146.927,248.363 C1147.338,251.422 1149.981,253.774 1153.143,253.742 C1156.563,253.707 1159.319,250.898 1159.29,247.478 C1159.261,244.059 1156.457,241.299 1153.038,241.322 A0.5,0.5 0 0 0 1153.026,241.334 A0.5,0.5 0 0 0 1152.995,241.322 M1153.018,242.312 A0.5,0.5 0 0 0 1153.044,242.322 C1155.923,242.303 1158.265,244.609 1158.29,247.488 C1158.314,250.368 1156.013,252.713 1153.133,252.742 C1150.254,252.772 1147.904,250.473 1147.87,247.594 C1147.835,244.714 1150.129,242.362 1153.008,242.322 A0.5,0.5 0 0 0 1153.018,242.312" fill="#000"/><text x="1075.036" y="270.82" fill="#000" font-size="12" textLength="50.928" font-family="'Helvetica, Arial, sans-serif'">Interface</text><text x="1074.88" y="287.164" fill="#000" font-size="12" textLength="51.24" font-family="'Helvetica, Arial, sans-serif'">(Interfaz)</text></g><!--entity dobj--><g class="entity" data-qualified-name="dobj" id="ent0013" data-source-line="195"><rect x="1229.5" y="227.992" width="140" height="72.688" fill="#C2F0FF" style="stroke:#181818;stroke-width:0.5;" rx="0.5" ry="0.5"/><path d="M1340.55,241.702 A0.5,0.5 0 0 0 1340.05,242.202 L1340.05,254.41 A0.5,0.5 0 0 0 1340.55,254.91 L1358.603,254.91 A0.5,0.5 0 0 0 1359.103,254.41 L1359.103,242.202 A0.5,0.5 0 0 0 1358.603,241.702 M1341.05,242.702 L1358.103,242.702 L1358.103,244.787 L1341.05,244.698 M1341.05,245.698 L1358.103,245.787 L1358.103,253.909 L1341.05,253.909" fill="#000"/><text x="1266.308" y="270.82" fill="#000" font-size="12" textLength="26.556" font-family="'Helvetica, Arial, sans-serif'">Data</text><text x="1292.864" y="270.82" fill="#000" font-size="12" font-family="'Helvetica, Arial, sans-serif'"> </text><text x="1295.984" y="270.82" fill="#000" font-size="12" textLength="36.708" font-family="'Helvetica, Arial, sans-serif'">Object</text><text x="1250.876" y="287.164" fill="#000" font-size="12" textLength="41.808" font-family="'Helvetica, Arial, sans-serif'">(Objeto</text><text x="1292.684" y="287.164" fill="#000" font-size="12" font-family="'Helvetica, Arial, sans-serif'"> </text><text x="1295.804" y="287.164" fill="#000" font-size="12" textLength="14.148" font-family="'Helvetica, Arial, sans-serif'">de</text><text x="1309.952" y="287.164" fill="#000" font-size="12" font-family="'Helvetica, Arial, sans-serif'"> </text><text x="1313.072" y="287.164" fill="#000" font-size="12" textLength="35.052" font-family="'Helvetica, Arial, sans-serif'">datos)</text></g><!--entity itsw--><g class="entity" data-qualified-name="itsw" id="ent0014" data-source-line="210"><rect x="1221.5" y="78.992" width="140" height="72.688" fill="#C9FFC9" style="stroke:#181818;stroke-width:0.5;" rx="0.5" ry="0.5"/><path d="M1341.49,92.342 C1338.965,92.304 1336.671,93.802 1335.684,96.113 C1334.31,97.269 1333.444,99.009 1333.467,100.94 C1333.508,104.359 1336.32,107.111 1339.74,107.077 C1342.272,107.051 1344.44,105.503 1345.382,103.313 A0.5,0.5 0 0 0 1345.394,103.303 C1347.376,101.635 1348.115,98.907 1347.246,96.467 C1346.377,94.027 1344.08,92.381 1341.49,92.342 M1341.475,93.342 C1343.65,93.375 1345.573,94.753 1346.303,96.803 C1346.833,98.292 1346.652,99.904 1345.875,101.212 C1345.882,101.08 1345.886,100.947 1345.884,100.813 C1345.855,97.393 1343.052,94.633 1339.632,94.657 A0.5,0.5 0 0 0 1339.613,94.665 A0.5,0.5 0 0 0 1339.591,94.657 C1338.877,94.667 1338.192,94.797 1337.555,95.029 C1338.541,93.955 1339.956,93.319 1341.474,93.342 M1339.623,95.649 A0.5,0.5 0 0 0 1339.641,95.657 C1342.52,95.637 1344.86,97.943 1344.885,100.823 C1344.909,103.703 1342.608,106.047 1339.728,106.077 C1336.849,106.106 1334.501,103.808 1334.467,100.928 C1334.448,99.34 1335.137,97.912 1336.242,96.944 A0.5,0.5 0 0 0 1336.507,96.727 C1337.366,96.069 1338.438,95.673 1339.605,95.657 A0.5,0.5 0 0 0 1339.623,95.649" fill="#000"/><text x="1251.252" y="121.82" fill="#000" font-size="12" textLength="10.74" font-family="'Helvetica, Arial, sans-serif'">IT</text><text x="1261.992" y="121.82" fill="#000" font-size="12" font-family="'Helvetica, Arial, sans-serif'"> </text><text x="1265.112" y="121.82" fill="#000" font-size="12" textLength="66.636" font-family="'Helvetica, Arial, sans-serif'">Component</text><text x="1262.802" y="138.164" fill="#000" font-size="12" textLength="57.396" font-family="'Helvetica, Arial, sans-serif'">(Software)</text></g><!--entity ithw--><g class="entity" data-qualified-name="ithw" id="ent0015" data-source-line="207"><rect x="1397.5" y="78.992" width="140" height="72.688" fill="#C9FFC9" style="stroke:#181818;stroke-width:0.5;" rx="0.5" ry="0.5"/><path d="M1509.45,92.052 A0.5,0.5 0 0 0 1508.95,92.548 L1508.856,102.464 A0.5,0.5 0 0 0 1509.356,102.968 L1512.393,102.968 L1510.135,105.099 A0.5,0.5 0 0 0 1510.477,105.962 L1524.414,106.009 A0.5,0.5 0 0 0 1524.794,105.179 L1522.856,102.968 L1525.539,102.968 A0.5,0.5 0 0 0 1526.039,102.466 L1525.992,92.55 A0.5,0.5 0 0 0 1525.493,92.052 M1509.944,93.052 L1524.995,93.052 L1525.038,101.968 L1509.86,101.968 M1513.321,103.468 L1521.966,103.468 L1523.311,105.005 L1511.731,104.966" fill="#000"/><text x="1427.252" y="121.82" fill="#000" font-size="12" textLength="10.74" font-family="'Helvetica, Arial, sans-serif'">IT</text><text x="1437.992" y="121.82" fill="#000" font-size="12" font-family="'Helvetica, Arial, sans-serif'"> </text><text x="1441.112" y="121.82" fill="#000" font-size="12" textLength="66.636" font-family="'Helvetica, Arial, sans-serif'">Component</text><text x="1435.976" y="138.164" fill="#000" font-size="12" textLength="63.048" font-family="'Helvetica, Arial, sans-serif'">(Hardware)</text></g><!--entity itsvc--><g class="entity" data-qualified-name="itsvc" id="ent0016" data-source-line="240"><rect x="846" y="78.992" width="157.353" height="72.688" fill="#C9FFC9" style="stroke:#181818;stroke-width:0.5;" rx="12.5" ry="12.5"/><path d="M979.853,94.902 C977.177,94.896 975,97.106 974.976,99.824 C974.952,102.542 977.09,104.794 979.765,104.838 A0.5,0.5 0 0 0 979.781,104.838 L987.322,104.838 A0.5,0.5 0 0 0 987.328,104.838 C990.015,104.813 992.173,102.559 992.152,99.83 C992.131,97.112 989.955,94.903 987.283,94.904 L987.283,94.902 L987.25,94.902 M979.851,95.902 A0.5,0.5 0 0 0 979.855,95.902 L987.282,95.902 C989.405,95.902 991.134,97.646 991.151,99.838 C991.168,102.038 989.455,103.816 987.322,103.838 C987.321,103.838 987.319,103.838 987.318,103.838 L979.783,103.838 C977.658,103.803 975.956,102.026 975.976,99.834 C975.995,97.642 977.725,95.898 979.851,95.902" fill="#000"/><text x="884.428" y="121.82" fill="#000" font-size="12" textLength="10.74" font-family="'Helvetica, Arial, sans-serif'">IT</text><text x="895.168" y="121.82" fill="#000" font-size="12" font-family="'Helvetica, Arial, sans-serif'"> </text><text x="898.288" y="121.82" fill="#000" font-size="12" textLength="66.636" font-family="'Helvetica, Arial, sans-serif'">Component</text><text x="856" y="138.164" fill="#000" font-size="12" textLength="43.632" font-family="'Helvetica, Arial, sans-serif'">(Service</text><text x="899.632" y="138.164" fill="#000" font-size="12" font-family="'Helvetica, Arial, sans-serif'"> </text><text x="902.752" y="138.164" fill="#000" font-size="12" textLength="90.601" font-family="'Helvetica, Arial, sans-serif'">SaaS/PaaS/IaaS)</text></g><g class="link" data-entity-1="ent0002" data-entity-2="ent0011" id="lnk18" data-link-type="extension"><polygon points="157.066,137.371,173.038,147.612,175.989,135.98,157.066,137.371" fill="none" style="stroke:#000;stroke-width:1;stroke-linejoin:miter;stroke-miterlimit:10;"/><path d="M174.513,141.796 C195.287,147.066 200.447,147.944 221.5,151.992 C281.375,163.505 306.067,137.248 357.5,169.992 C373.516,180.189 364.192,196.269 380.5,205.992 C427.579,234.063 573.478,210.097 626.5,223.992 C631.021,225.177 635.595,226.6 640.153,228.192" style="stroke:#000;stroke-width:1;stroke-dasharray:1,3;" fill="none"/><text x="390.948" y="184.82" fill="#000" font-size="12" textLength="61.632" font-family="'Helvetica, Arial, sans-serif'">Realization</text><text x="382.5" y="201.164" fill="#000" font-size="12" textLength="60.252" font-family="'Helvetica, Arial, sans-serif'">(functional</text><text x="442.752" y="201.164" fill="#000" font-size="12" font-family="'Helvetica, Arial, sans-serif'"> </text><text x="445.872" y="201.164" fill="#000" font-size="12" textLength="15.156" font-family="'Helvetica, Arial, sans-serif'">fit)</text></g><g class="link" data-entity-1="ent0008" data-entity-2="ent0011" id="lnk20" data-link-type="dependency"><polygon points="1078.61,152.369,1071.214,158.872,1076.52,156.911,1078.482,162.217,1078.61,152.369" fill="#000" style="stroke:#000;stroke-width:1;stroke-linejoin:miter;stroke-miterlimit:10;"/><path d="M1076.52,156.911 C1067.702,176.074 1056.103,193.655 1036.5,205.992 C1003.787,226.58 901.54,217.142 863.5,223.992 C836.231,228.903 806.664,236.087 780.856,242.986" style="stroke:#000;stroke-width:1;" fill="none"/><text x="1071.5" y="192.82" fill="#000" font-size="12" textLength="42.3" font-family="'Helvetica, Arial, sans-serif'">Serving</text></g><g class="link" data-entity-1="ent0011" data-entity-2="ent0012" id="lnk21" data-link-type="composition"><polygon points="754.143,227.855,761.349,227.571,763.857,220.81,756.652,221.095,754.143,227.855" fill="#000" style="stroke:#000;stroke-width:1;stroke-linejoin:miter;stroke-miterlimit:10;"/><path d="M763.857,220.81 C784.314,205.973 800.135,197.61 826,189.992 C898.71,168.576 982.917,199.628 1038.691,227.927" style="stroke:#000;stroke-width:1;" fill="none"/><text x="828" y="192.82" fill="#000" font-size="12" textLength="71.653" font-family="'Helvetica, Arial, sans-serif'">Composition</text></g><g class="link" data-entity-1="ent0012" data-entity-2="ent0013" id="lnk22" data-link-type="association"><path d="M1170.66,264.492 C1189.683,264.492 1210.278,264.492 1229.303,264.492" style="stroke:#000;stroke-width:1;stroke-dasharray:1,3;" fill="none"/><text x="1181.5" y="256.32" fill="#000" font-size="12" textLength="37.452" font-family="'Helvetica, Arial, sans-serif'">Access</text></g><g class="link" data-entity-1="ent0011" data-entity-2="ent0013" id="lnk23" data-link-type="association"><path d="M734.486,227.791 C746.258,213.137 761.831,197.89 780,189.992 C796.712,182.728 802.798,189.131 821,189.992 C980.869,197.556 1022.969,190.624 1179.5,223.992 C1195.844,227.476 1213.059,232.461 1229.189,237.748" style="stroke:#000;stroke-width:1;stroke-dasharray:1,3;" fill="none"/><text x="782" y="192.82" fill="#000" font-size="12" textLength="37.452" font-family="'Helvetica, Arial, sans-serif'">Access</text></g><g class="link" data-entity-1="ent0014" data-entity-2="ent0011" id="lnk24" data-link-type="dependency"><polygon points="780.77,242.483,790.501,244.005,785.598,241.183,788.42,236.28,780.77,242.483" fill="#000" style="stroke:#000;stroke-width:1;stroke-linejoin:miter;stroke-miterlimit:10;"/><path d="M1237.364,152.012 C1204.64,171.567 1161.292,194.201 1119.5,205.992 C1009.727,236.964 976.076,205.66 863.5,223.992 C836.152,228.445 811.396,234.233 785.598,241.183" style="stroke:#000;stroke-width:1;" fill="none"/><text x="1237.824" y="184.82" fill="#000" font-size="12" textLength="42.3" font-family="'Helvetica, Arial, sans-serif'">Serving</text><text x="1204.5" y="201.164" fill="#000" font-size="12" textLength="53.976" font-family="'Helvetica, Arial, sans-serif'">(technical</text><text x="1258.476" y="201.164" fill="#000" font-size="12" font-family="'Helvetica, Arial, sans-serif'"> </text><text x="1261.596" y="201.164" fill="#000" font-size="12" textLength="14.772" font-family="'Helvetica, Arial, sans-serif'">fit,</text><text x="1276.368" y="201.164" fill="#000" font-size="12" font-family="'Helvetica, Arial, sans-serif'"> </text><text x="1279.489" y="201.164" fill="#000" font-size="12" textLength="33.96" font-family="'Helvetica, Arial, sans-serif'">costo)</text></g><g class="link" data-entity-1="ent0016" data-entity-2="ent0011" id="lnk25" data-link-type="dependency"><polygon points="780.75,246.068,790.466,247.676,785.589,244.811,788.455,239.933,780.75,246.068" fill="#000" style="stroke:#000;stroke-width:1;stroke-linejoin:miter;stroke-miterlimit:10;"/><path d="M923.84,152.316 C921.673,170.514 916.065,191.732 902.5,205.992 C893.701,215.241 836.737,231.524 785.589,244.811" style="stroke:#000;stroke-width:1;" fill="none"/><text x="955.824" y="184.82" fill="#000" font-size="12" textLength="42.3" font-family="'Helvetica, Arial, sans-serif'">Serving</text><text x="922.5" y="201.164" fill="#000" font-size="12" textLength="53.976" font-family="'Helvetica, Arial, sans-serif'">(technical</text><text x="976.476" y="201.164" fill="#000" font-size="12" font-family="'Helvetica, Arial, sans-serif'"> </text><text x="979.596" y="201.164" fill="#000" font-size="12" textLength="14.772" font-family="'Helvetica, Arial, sans-serif'">fit,</text><text x="994.368" y="201.164" fill="#000" font-size="12" font-family="'Helvetica, Arial, sans-serif'"> </text><text x="997.489" y="201.164" fill="#000" font-size="12" textLength="33.96" font-family="'Helvetica, Arial, sans-serif'">costo)</text></g><g class="link" data-entity-1="ent0014" data-entity-2="ent0004" id="lnk27" data-link-type="aggregation"><polygon points="1411.977,223.676,1409.617,216.862,1402.419,216.42,1404.78,223.234,1411.977,223.676" fill="none" style="stroke:#000;stroke-width:1;stroke-linejoin:miter;stroke-miterlimit:10;"/><path d="M1328.84,152.295 C1346.789,169.06 1368.847,189.027 1389.5,205.992 C1396.65,211.865 1394.77,210.613 1402.419,216.42" style="stroke:#000;stroke-width:1;" fill="none"/><text x="1391.5" y="192.82" fill="#000" font-size="12" textLength="70.368" font-family="'Helvetica, Arial, sans-serif'">Aggregation</text></g><g class="link" data-entity-1="ent0015" data-entity-2="ent0004" id="lnk29" data-link-type="aggregation"><polygon points="1467.5,223.836,1471.5,217.836,1467.5,211.836,1463.5,217.836,1467.5,223.836" fill="none" style="stroke:#000;stroke-width:1;stroke-linejoin:miter;stroke-miterlimit:10;"/><path d="M1467.5,152.077 C1467.5,173.744 1467.5,189.466 1467.5,211.836" style="stroke:#000;stroke-width:1;" fill="none"/><text x="1469.5" y="192.82" fill="#000" font-size="12" textLength="70.368" font-family="'Helvetica, Arial, sans-serif'">Aggregation</text></g><g class="link" data-entity-1="ent0006" data-entity-2="ent0016" id="lnk30" data-link-type="association"><path d="M760.708,115.492 C787.497,115.492 818.206,115.492 845.739,115.492" style="stroke:#000;stroke-width:1;" fill="none"/><text x="771.25" y="107.32" fill="#000" font-size="12" textLength="64.116" font-family="'Helvetica, Arial, sans-serif'">Association</text></g><g class="link" data-entity-1="ent0011" data-entity-2="ent0007" id="lnk32" data-link-type="dependency"><polygon points="701.841,301.226,696.486,309.492,701.061,306.165,704.388,310.74,701.841,301.226" fill="#000" style="stroke:#000;stroke-width:1;stroke-linejoin:miter;stroke-miterlimit:10;"/><path d="M701.061,306.165 C698.265,323.872 697.924,340.441 703.5,358.992 C705.773,366.555 709.4,374.04 713.532,380.985" style="stroke:#000;stroke-width:1;" fill="none"/><text x="705.5" y="337.82" fill="#000" font-size="12" textLength="42.3" font-family="'Helvetica, Arial, sans-serif'">Serving</text><text x="712.838" y="354.164" fill="#000" font-size="12" textLength="27.624" font-family="'Helvetica, Arial, sans-serif'">(uso)</text></g><g class="link" data-entity-1="ent0007" data-entity-2="ent0011" id="lnk33" data-link-type="association"><path d="M750.812,380.743 C753.864,363.032 755.192,341.525 749.5,322.992 C747.198,315.497 743.551,308.101 739.39,301.237" style="stroke:#000;stroke-width:1;" fill="none"/><text x="756.208" y="337.82" fill="#000" font-size="12" textLength="64.116" font-family="'Helvetica, Arial, sans-serif'">Association</text><text x="755.5" y="354.164" fill="#000" font-size="12" textLength="65.532" font-family="'Helvetica, Arial, sans-serif'">(propiedad)</text></g><g class="link" data-entity-1="ent0010" data-entity-2="ent0011" id="lnk34" data-link-type="association"><path d="M420.711,227.785 C432.577,213.13 448.256,197.884 466.5,189.992 C530.729,162.208 608.62,197.099 658.843,227.883" style="stroke:#000;stroke-width:1;" fill="none"/><text x="468.5" y="192.82" fill="#000" font-size="12" textLength="64.116" font-family="'Helvetica, Arial, sans-serif'">Association</text></g><g class="link" data-entity-1="ent0001" data-entity-2="ent0010" id="lnk36" data-link-type="dependency"><polygon points="293.174,152.157,288.311,160.722,292.684,157.133,296.273,161.506,293.174,152.157" fill="#000" style="stroke:#000;stroke-width:1;stroke-linejoin:miter;stroke-miterlimit:10;"/><path d="M292.684,157.133 C290.98,174.442 292.33,189.934 301.5,205.992 C307.523,216.539 316.335,225.378 326.198,232.709" style="stroke:#000;stroke-width:1;stroke-dasharray:7,7;" fill="none"/><text x="303.5" y="192.82" fill="#000" font-size="12" textLength="52.836" font-family="'Helvetica, Arial, sans-serif'">Influence</text></g><g class="link" data-entity-1="ent0002" data-entity-2="ent0001" id="lnk37" data-link-type="dependency"><polygon points="230.341,115.492,221.341,111.492,225.341,115.492,221.341,119.492,230.341,115.492" fill="#000" style="stroke:#000;stroke-width:1;stroke-linejoin:miter;stroke-miterlimit:10;"/><path d="M157.174,115.492 C180.912,115.492 202.002,115.492 225.341,115.492" style="stroke:#000;stroke-width:1;stroke-dasharray:7,7;" fill="none"/><text x="167.75" y="107.32" fill="#000" font-size="12" textLength="52.836" font-family="'Helvetica, Arial, sans-serif'">Influence</text></g><g class="link" data-entity-1="ent0011" data-entity-2="ent0005" id="lnk39" data-link-type="aggregation"><polygon points="575.46,376.791,582.245,374.349,582.6,367.147,575.815,369.589,575.46,376.791" fill="none" style="stroke:#000;stroke-width:1;stroke-linejoin:miter;stroke-miterlimit:10;"/><path d="M650.342,301.039 C640.631,307.82 630.99,315.239 622.5,322.992 C605.073,338.906 595.632,349.543 582.6,367.147" style="stroke:#000;stroke-width:1;" fill="none"/><text x="624.5" y="345.82" fill="#000" font-size="12" textLength="70.368" font-family="'Helvetica, Arial, sans-serif'">Aggregation</text></g><g class="link" data-entity-1="ent0016" data-entity-2="ent0005" id="lnk41" data-link-type="aggregation"><polygon points="538.091,376.877,540.817,370.201,535.703,365.117,532.977,371.793,538.091,376.877" fill="none" style="stroke:#000;stroke-width:1;stroke-linejoin:miter;stroke-miterlimit:10;"/><path d="M845.976,134.389 C743.673,158.469 575.632,200.929 557.5,223.992 C523.484,267.257 527.08,322.644 535.703,365.117" style="stroke:#000;stroke-width:1;" fill="none"/><text x="559.5" y="269.32" fill="#000" font-size="12" textLength="70.368" font-family="'Helvetica, Arial, sans-serif'">Aggregation</text></g><g class="link" data-entity-1="ent0002" data-entity-2="ent0005" id="lnk43" data-link-type="aggregation"><polygon points="473.27,400.394,468.435,395.044,461.637,397.449,466.472,402.799,473.27,400.394" fill="none" style="stroke:#000;stroke-width:1;stroke-linejoin:miter;stroke-miterlimit:10;"/><path d="M103.892,152.25 C131.846,194.216 183.37,263.352 243.5,304.992 C313.952,353.78 396.634,380.996 461.637,397.449" style="stroke:#000;stroke-width:1;" fill="none"/><text x="245.5" y="269.32" fill="#000" font-size="12" textLength="70.368" font-family="'Helvetica, Arial, sans-serif'">Aggregation</text></g><g class="link" data-entity-1="ent0002" data-entity-2="ent0003" id="lnk44" data-link-type="dependency"><polygon points="422.666,78.936,415.873,71.805,418.044,77.029,412.821,79.2,422.666,78.936" fill="#000" style="stroke:#000;stroke-width:1;stroke-linejoin:miter;stroke-miterlimit:10;"/><path d="M157.143,79.686 C185.455,68.108 218.32,56.772 249.5,50.992 C308.432,40.068 369.415,56.959 418.044,77.029" style="stroke:#000;stroke-width:1;" fill="none"/><text x="251.5" y="55.82" fill="#000" font-size="12" textLength="42.3" font-family="'Helvetica, Arial, sans-serif'">Serving</text></g><g class="link" data-entity-1="ent0011" data-entity-2="ent0009" id="lnk46" data-link-type="aggregation"><polygon points="872.101,264.492,866.101,260.492,860.101,264.492,866.101,268.492,872.101,264.492" fill="none" style="stroke:#000;stroke-width:1;stroke-linejoin:miter;stroke-miterlimit:10;"/><path d="M780.737,264.492 C809.678,264.492 831.144,264.492 860.101,264.492" style="stroke:#000;stroke-width:1;" fill="none"/><text x="791.5" y="240.32" fill="#000" font-size="12" textLength="70.368" font-family="'Helvetica, Arial, sans-serif'">Aggregation</text><text x="792.682" y="256.664" fill="#000" font-size="12" textLength="23.196" font-family="'Helvetica, Arial, sans-serif'">(por</text><text x="815.878" y="256.664" fill="#000" font-size="12" font-family="'Helvetica, Arial, sans-serif'"> </text><text x="818.998" y="256.664" fill="#000" font-size="12" textLength="41.688" font-family="'Helvetica, Arial, sans-serif'">validar)</text></g><?plantuml-src bLPBRnit4BxhLqnyoHg8xQ9DBabhGBNpK14dXkK-3WMK4NUqehrBBaZkEif_wYc7tki_rXakjLfPCjBg896S-JxEcteA5nImiZcL5fGrYkhGO0cyX_7bnKi8khQUj_06LO3faYZ8RZg-XFU4Pl97980BOO3s-UWfqEVQaSUSOSfM5gYaYapWxTYffRx0GF33yVUGrSxM3Nb6Co7_4l39YbImhn8tinaBTJCljK9e35HOamMxq4gpaGEJZautx8V7Z7kTwu0ELk2e84CEtKluPEeA7DFa6Wk7bVy4MKiESglyIT5ez2T9WlwuoWz7JxHHPSFM_OX2NZ7voNYzEXqz2Kjs3NhP4VjYSdGvB9ojXg2ew4z7ew13ISEOfq33FtyFt8a1J-5jdmEPxT2DHlvMcnhPK5PSO5E6DzQ43yZ67BoZigN0yNh688xIC_1e_94dfnS70w3X-ptLyFoxmQ53Sok7BrwCE8O_oOTJ6tIBIjz_DTt9g3i9sfhPMujbLbYvvk3Z_8QJfrlwqsIovgKzF3ZSCBtsmR4BXSP4DEtsgzaPrZZNfGwhJ67DN3ytNXlo7ZOIPfMDqZdc4Xz3XLKwtj3p_8PbGxmZhBBMnzyjCeuIVGxC51MXquGJE6jyi1MNmY-sSOPMMsQVsIhMgKrMltMsgRKfia1ggJ3m3TUyObFP1kiwG-Fo_Yy4LZAslFzQS4g4jaVN9OQ5TMBWPLeoKfOeQzoouKFdRB9WxT1ipCtYf95QdPCJfhGK9buIvTO9qGE4TOKap1Lez9UOISbPsiPKRu6OIl5lDkURrFw09fM7iBnH8SBo_R3-AEbkEJsfwcvsfEfRGQMvEuUbk569vVYxTRUNg6wne4mR7JHAFVBLatx3b_96nSrsZCUrZ9aX-xYEHv5Qgi0QlYd3MYfq86FA0LOuXy09--eMgDWY-Ox6f9DeIrn_UOWwvpBe6YhBxVo6KN82tT6wmMHyG8uyMxSSkOubPmiflyuHgSzuj9fDLpnfgwbTX3jqR5FmTsBIDVGECljQBBG3x3crMlm8opsOTppuzc2cv1B8jshFJPqOfeZJaqlvcl3NbZjNL79a6U0XyysSNwcRXjyJq6KJ1mgFcLSWSppWl4HvTBWcE5OyDhiXUnH391CzXOCPPrU4PQhzsQzrbzHkzWmaRE2YCKgM_DuiTAnFGKUpJT4ZrvsHpfDMTDJhUCULBfQfTjPrC10dm5X94oNTf9RItudswKNEVLfh8y_jdKc9xcet2TWx6M7S3Prp703BO-xm4RYax__WnqN1ZsyVuNvQff8RYBy9M3u2yDx6JkxZknc5wteRwEpcBix1XpurVkF2pWK3n438AFateudVfiUnmucqGv5G4xFWbud_XubvGq1wP7lvZdvtHopXHtGVn7Vp02LZlfMG3Q0Fxd-7TBsr2rXdOs3-vkNURgSXztjQz0_BZlcI3kkWvJxclsESa7y1?></g></svg>